<svg xmlns="http://www.w3.org/2000/svg" viewBox="0 0 512 512">
<defs>
 <linearGradient id="bg" x1="0" y1="0" x2="1" y2="1"><stop stop-color="#16294a"/><stop offset="1" stop-color="#07101f"/></linearGradient>
 <linearGradient id="g" x1="0" y1="0" x2="1" y2="1"><stop stop-color="#ffe8a6"/><stop offset=".55" stop-color="#e0ac48"/><stop offset="1" stop-color="#8b581b"/></linearGradient>
 <linearGradient id="d" x1="0" y1="0" x2="1" y2="1"><stop stop-color="#5a6575"/><stop offset=".5" stop-color="#202630"/><stop offset="1" stop-color="#090d13"/></linearGradient>
 <filter id="s"><feGaussianBlur in="SourceAlpha" stdDeviation="8"/><feOffset dy="7"/><feComponentTransfer><feFuncA type="linear" slope=".45"/></feComponentTransfer><feMerge><feMergeNode/><feMergeNode in="SourceGraphic"/></feMerge></filter>
</defs>
<rect x="12" y="12" width="488" height="488" rx="104" fill="url(#bg)" stroke="url(#g)" stroke-width="18"/>
<circle cx="256" cy="216" r="158" fill="#2b4c7b" opacity=".22"/>
<g filter="url(#s)" stroke="#070a10" stroke-width="9" stroke-linejoin="round">
 <path d="M126 268 C112 202 145 126 221 102 C188 145 184 182 195 214 C149 199 123 224 126 268Z" fill="#a66c55"/>
 <path d="M191 250 C224 194 287 154 365 166 C320 184 303 208 294 239 C339 225 381 236 402 271 C350 267 325 285 309 319 C277 346 220 336 190 304Z" fill="url(#d)"/>
 <path d="M310 205 C341 170 386 164 421 187 L449 211 L417 236 L371 241 C349 256 320 246 307 226Z" fill="url(#d)"/>
 <path d="M356 177 l-30 -47 46 35" fill="url(#g)"/>
 <path d="M389 171 l-10 -54 35 47" fill="url(#g)"/>
 <path d="M332 193 l-34 -21 39 6" fill="#667487"/>
 <ellipse cx="395" cy="205" rx="10" ry="8" fill="#ff9e35" stroke="#111" stroke-width="3"/>
 <circle cx="399" cy="202" r="3" fill="#fff" stroke="none"/>
 <path d="M420 211 l31 8 -29 14" fill="#a88b72"/>
 <path d="M185 290 C136 321 90 317 67 287 C96 294 116 281 124 260" fill="none" stroke="url(#d)" stroke-width="30" stroke-linecap="round"/>
</g>
<text x="256" y="402" text-anchor="middle" font-family="Georgia,serif" font-size="54" font-weight="700" fill="#ffe8a6" stroke="#5f3b11" stroke-width="2">DRAGON</text>
<text x="256" y="452" text-anchor="middle" font-family="Arial,sans-serif" font-size="33" font-weight="800" letter-spacing="8" fill="#e0ac48">MISSION</text>
</svg>